<svg xmlns="http://www.w3.org/2000/svg" version="1.1" xmlns:xlink="http://www.w3.org/1999/xlink" xmlns:svgjs="http://svgjs.dev/svgjs" width="1440" height="560" preserveAspectRatio="none" viewBox="0 0 1440 560"><g mask="url(&quot;#SvgjsMask2359&quot;)" fill="none"><rect width="1440" height="560" x="0" y="0" fill="url(&quot;#SvgjsLinearGradient2360&quot;)"></rect><path d="M700 104.6C646.44 104.6 591.67 30.42 591.67 0C591.67 -21.88 645.84 0 700 0C751.7 0 803.41 -21.59 803.41 0C803.41 30.71 752.31 104.6 700 104.6" stroke="rgba(76, 27, 168, 0.43)" stroke-width="2"></path><path d="M1400 232.58C1363.56 232.58 1318.33 257.09 1318.33 280C1318.33 302.42 1363.11 323.24 1400 323.24C1423.03 323.24 1438.18 302.05 1438.18 280C1438.18 256.72 1423.49 232.58 1400 232.58" stroke="rgba(76, 27, 168, 0.43)" stroke-width="2"></path><path d="M840 369.85C789 369.85 728 387.21 728 420C728 458.95 793.63 513.33 840 513.33C873.29 513.33 887.32 463.24 887.32 420C887.32 391.5 868.66 369.85 840 369.85" stroke="rgba(76, 27, 168, 0.43)" stroke-width="2"></path><path d="M76.53 140C94.86 77.48 46.79 46.2 67.74 0C78.53 -23.8 103.87 0 140 0C210 0 210 0 280 0C301.54 0 302.4 -5.03 323.08 0C372.4 11.99 383.32 2.4 420 34.05C464.44 72.4 485.33 85.35 485.33 140C485.33 205.91 472.75 246.65 420 275.17C370.08 302.16 350.39 260.08 280 251.03C210.39 242.08 205.5 229.41 140 239.17C108.28 243.9 85.56 260.78 85.56 280C85.56 298.09 109.6 306.07 140 313.79C206.82 330.77 226.59 298.38 280 329.41C317.98 351.48 290.79 383.61 322.78 420C360.79 463.22 365.53 471.38 420 488.63C484.14 508.94 495.47 475.52 560 495.12C612.97 511.21 655 542.23 655 560C655 574.67 607.5 560 560 560C490 560 490 560 420 560C350 560 350 560 280 560C246.59 560 240.83 574.13 213.18 560C170.83 538.35 184.97 501.73 140 488.44C78.38 470.23 45.19 519.09 0 497C-24.81 484.87 0 458.5 0 420C0 350 0 350 0 280C0 255.56 -11.14 251.5 0 231.11C27.12 181.5 60.99 193.03 76.53 140" stroke="rgba(76, 27, 168, 0.43)" stroke-width="2"></path><path d="M700 64.37C667.04 64.37 633.33 18.72 633.33 0C633.33 -13.47 666.66 0 700 0C731.82 0 763.64 -13.29 763.64 0C763.64 18.9 732.19 64.37 700 64.37" stroke="rgba(76, 27, 168, 0.43)" stroke-width="2"></path><path d="M1260 42C1236.05 42 1218.59 12.34 1218.59 0C1218.59 -8.66 1239.3 0 1260 0C1299.73 0 1339.46 -9.85 1339.46 0C1339.46 11.15 1296.49 42 1260 42" stroke="rgba(76, 27, 168, 0.43)" stroke-width="2"></path><path d="M1365.54 140C1365.54 107.64 1368.83 80.72 1400 70C1456.06 50.72 1490.96 55.48 1540 80C1560.96 90.48 1540 110 1540 140C1540 210 1540 210 1540 280C1540 311.91 1552.07 343.82 1540 343.82C1523.89 343.82 1510.92 312.67 1483.64 280C1440.92 228.83 1442.96 227.06 1400 176.13C1383.91 157.06 1365.54 160.71 1365.54 140" stroke="rgba(76, 27, 168, 0.43)" stroke-width="2"></path><path d="M800 280C800 258.7 816.59 253.99 840 235.79C906.59 183.99 918.05 129.36 980 140C1046.7 151.46 1036.93 211.76 1097.3 280C1106.93 290.89 1106.18 294.54 1120 298.26C1187.53 316.42 1191.61 305.08 1260 323.75C1331.61 343.3 1334.35 341.83 1400 374.71C1430.45 389.96 1433.41 391.66 1452.2 420C1494.84 484.31 1537.49 520.75 1522.86 560C1511.39 590.75 1461.43 560 1400 560C1330 560 1330 560 1260 560C1215.79 560 1212.44 570.59 1171.58 560C1142.44 552.44 1148 537.91 1120 523.7C1052.21 489.3 1045.54 499.84 980 462.78C953.85 447.99 957.76 441.92 936.62 420C887.76 369.34 889.14 367.97 840 317.61C820.83 297.97 800 299.61 800 280" stroke="rgba(76, 27, 168, 0.43)" stroke-width="2"></path><path d="M123.2 140C116.73 72.01 116.64 62.9 124.19 0C125.04 -7.1 132.1 0 140 0C157.5 0 164.77 -12.5 175 0C222.05 57.5 264.67 91.95 254.55 140C247.17 175.07 191.91 166.25 140 166.25C126.23 166.25 124.64 155.14 123.2 140" stroke="rgba(76, 27, 168, 0.43)" stroke-width="2"></path><path d="M336 140C336 133.56 380.69 128.65 420 128.65C426.19 128.65 427 134.15 427 140C427 147.06 427.22 154.48 420 154.48C381.72 154.48 336 146.48 336 140" stroke="rgba(76, 27, 168, 0.43)" stroke-width="2"></path><path d="M700 24.14C687.64 24.14 675 7.02 675 0C675 -5.05 687.5 0 700 0C711.93 0 723.86 -4.98 723.86 0C723.86 7.09 712.07 24.14 700 24.14" stroke="rgba(76, 27, 168, 0.43)" stroke-width="2"></path><path d="M915.38 280C915.38 257.02 950.98 252.9 980 252.9C994.64 252.9 1002.7 263.8 1002.7 280C1002.7 324.02 1000.01 373.33 980 373.33C956.35 373.33 915.38 317.23 915.38 280" stroke="rgba(76, 27, 168, 0.43)" stroke-width="2"></path><path d="M1529.09 280C1529.09 249.25 1537.25 215.38 1540 215.38C1542.71 215.38 1540 247.69 1540 280C1540 286.17 1542.34 292.35 1540 292.35C1536.88 292.35 1529.09 287.73 1529.09 280" stroke="rgba(76, 27, 168, 0.43)" stroke-width="2"></path><path d="M59.39 420C59.39 400.42 99.69 374.14 140 374.14C180.31 374.14 220.61 400.42 220.61 420C220.61 438.13 180.31 449.56 140 449.56C99.69 449.56 59.39 438.13 59.39 420" stroke="rgba(76, 27, 168, 0.43)" stroke-width="2"></path><path d="M1003.33 420C1003.33 398.67 1061.66 374.35 1120 374.35C1178.34 374.35 1236.67 398.67 1236.67 420C1236.67 440.94 1178.34 458.89 1120 458.89C1061.66 458.89 1003.33 440.94 1003.33 420" stroke="rgba(76, 27, 168, 0.43)" stroke-width="2"></path><path d="M252.95 560C252.95 531.19 251.64 483.7 280 483.23C335.17 482.32 346.03 542.83 420 557.25C486.03 570.12 492.54 536.72 560 537.8C578.79 538.1 592.5 553.92 592.5 560C592.5 565.02 576.25 560 560 560C490 560 490 560 420 560C350 560 350 560 280 560C266.48 560 252.95 569.57 252.95 560" stroke="rgba(76, 27, 168, 0.43)" stroke-width="2"></path><path d="M1267.37 560C1267.37 525.55 1346.8 440 1400 440C1438.83 440 1451.43 516.96 1451.43 560C1451.43 576.96 1425.72 560 1400 560C1333.68 560 1267.37 585.55 1267.37 560" stroke="rgba(76, 27, 168, 0.43)" stroke-width="2"></path></g><defs><mask id="SvgjsMask2359"><rect width="1440" height="560" fill="#ffffff"></rect></mask><linearGradient x1="50%" y1="100%" x2="50%" y2="0%" gradientUnits="userSpaceOnUse" id="SvgjsLinearGradient2360"><stop stop-color="rgba(14, 42, 71, 1)" offset="0.12"></stop><stop stop-color="rgba(0, 0, 0, 1)" offset="1"></stop></linearGradient></defs></svg>